<svg width="376.41875px" height="149.6px" xmlns="http://www.w3.org/2000/svg" viewBox="61.790625000000006 0.20000000000000284 376.41875 149.6" style="background: none;" preserveAspectRatio="xMidYMid"><defs><linearGradient id="editing-shiny-gradient" x1="0.04322727117869957" x2="0.9567727288213004" y1="0.2966316784620999" y2="0.7033683215379001" gradientUnits="objectBoundingBox"><stop offset="0.0" stop-color="#221f1f"></stop><stop offset="0.5" stop-color="#f5f5f1"></stop><stop offset="1.0" stop-color="#e50914"></stop></linearGradient><linearGradient id="editing-shiny-gradient2" x1="0" x2="0" y1="0" y2="1"><stop offset="0.2" stop-color="#fff" stop-opacity="0.8"></stop><stop offset="0.8" stop-color="#fff" stop-opacity="0"></stop></linearGradient><filter id="editing-shiny2" x="-100%" y="-100%" width="300%" height="300%"><feMorphology operator="erode" radius="2"></feMorphology></filter><filter id="editing-shiny" x="-100%" y="-100%" width="300%" height="300%"><feFlood flood-color="#fff" result="flood"></feFlood><feConvolveMatrix in="SourceGraphic" result="conv" order="8,8" divisor="1" kernelMatrix="0 0 0 0 0 0 0 0 0 0 0 1 1 0 0 0 0 0 0 1 1 0 0 0 0 0 1 0 0 1 0 0 0 0 1 0 0 1 0 0 0 1 0 0 0 0 1 0 0 1 1 0 0 1 1 0 0 0 0 1 1 0 0 0 "></feConvolveMatrix><feOffset dx="0" dy="4" in="conv" result="offset"></feOffset><feComposite operator="in" in="flood" in2="offset" result="comp"></feComposite><feGaussianBlur in="offset" stdDeviation="3" result="shadow"></feGaussianBlur><feColorMatrix in="shadow" type="matrix" values="0.7 0 0 0 0  0 0.7 0 0 0  0 0 0.7 0 0  0 0 0 0.3 0" result="dark-shadow"></feColorMatrix><feOffset dx="0" dy="4" in="dark-shadow" result="offset-shadow"></feOffset><feOffset dx="0" dy="2" in="conv" result="offset-2"></feOffset><feComposite operator="out" in="offset" in2="offset-2" result="edge-diff"></feComposite><feGaussianBlur in="edge-diff" stdDeviation="1" result="edge-blur"></feGaussianBlur><feColorMatrix in="edge-blur" result="edge-shadow" type="matrix" values="0 0 0 0 0  0 0 0 0 0  0 0 0 0 0  0 0 0 0.5 0"></feColorMatrix><feComposite operator="in" in="edge-shadow" in2="offset" result="edge-shadow-in"></feComposite><feOffset dx="0" dy="1" in="edge-shadow-in" result="edge-shadow-final"></feOffset><feMerge result="out"><feMergeNode in="offset-shadow"></feMergeNode><feMergeNode in="comp"></feMergeNode><feMergeNode in="edge-shadow-final"></feMergeNode><feMergeNode in="SourceGraphic"></feMergeNode></feMerge></filter></defs><g filter="url(#editing-shiny)"><g transform="translate(108.3599681854248, 103.5200023651123)"><path d="M6.24 0L6.24-56L32.96-56L32.96-51.76L10.72-51.76L10.72-33.04L24.40-33.04L22.56-28.64L10.72-28.64L10.72 0L6.24 0ZM40.48 0L40.48-40.08L44.96-40.08L44.72-37.28L44.72-37.28Q48.48-40.80 54.56-40.80L54.56-40.80L54.56-40.80Q56.72-40.80 60.48-40.08L60.48-40.08L59.28-36L59.28-36Q56.72-36.80 53.92-36.80L53.92-36.80L53.92-36.80Q50.24-36.80 47.60-35.44L47.60-35.44L47.60-35.44Q44.96-34.08 44.96-31.36L44.96-31.36L44.96 0L40.48 0ZM98.32-14.72L98.32-14.72Q98.32-8 94.64-3.60L94.64-3.60L94.64-3.60Q90.96 0.80 83.52 0.80L83.52 0.80L83.52 0.80Q76.08 0.80 72.28-3.64L72.28-3.64L72.28-3.64Q68.48-8.08 68.48-14.72L68.48-14.72L68.48-25.28L68.48-25.28Q68.48-32.88 72.36-36.92L72.36-36.92L72.36-36.92Q76.24-40.96 83.52-40.96L83.52-40.96L83.52-40.96Q90.48-40.96 94.40-36.76L94.40-36.76L94.40-36.76Q98.32-32.56 98.32-25.28L98.32-25.28L98.32-14.72ZM93.84-25.28L93.84-25.28Q93.84-31.28 91.08-34.08L91.08-34.08L91.08-34.08Q88.32-36.88 83.52-36.88L83.52-36.88L83.52-36.88Q78.56-36.88 75.76-34.08L75.76-34.08L75.76-34.08Q72.96-31.28 72.96-25.28L72.96-25.28L72.96-13.92L72.96-13.92Q72.96-9.12 75.80-6.16L75.80-6.16L75.80-6.16Q78.64-3.20 83.52-3.20L83.52-3.20L83.52-3.20Q88.48-3.20 91.16-6.12L91.16-6.12L91.16-6.12Q93.84-9.04 93.84-13.92L93.84-13.92L93.84-25.28ZM131.20 0L131.20-27.44L131.20-27.44Q131.20-32.32 128.36-34.52L128.36-34.52L128.36-34.52Q125.52-36.72 121.04-36.72L121.04-36.72L121.04-36.72Q118.32-36.72 115.52-35.96L115.52-35.96L115.52-35.96Q112.72-35.20 110.56-34L110.56-34L110.56 0L106.08 0L106.08-40.08L110.56-40.08L110.24-37.36L110.24-37.36Q112.16-39.04 115.12-39.88L115.12-39.88L115.12-39.88Q118.08-40.72 121.28-40.72L121.28-40.72L121.28-40.72Q125.68-40.72 128.80-39.28L128.80-39.28L128.80-39.28Q132-37.84 133.80-34.96L133.80-34.96L133.80-34.96Q135.60-32.08 135.60-27.68L135.60-27.68L135.60 0L131.20 0ZM152.96 1.04L152.96 1.04Q148.48-0.24 146.48-3.04L146.48-3.04L146.48-3.04Q144.48-5.84 144.48-10.56L144.48-10.56L144.48-56L148.96-56L148.96-40.08L158.56-40.08L156.64-35.84L148.96-35.84L148.96-10.56L148.96-10.56Q148.96-4.16 154.24-2.40L154.24-2.40L152.96 1.04ZM196.88 0L190.08-19.84L190.08-19.84Q188.64-19.60 186.88-19.60L186.88-19.60L171.12-19.60L171.12 0L166.64 0L166.64-56L186.32-56L186.32-56Q193.92-56 197.64-51.36L197.64-51.36L197.64-51.36Q201.36-46.72 201.36-38.88L201.36-38.88L201.36-38.88Q201.36-32.88 200.04-28.24L200.04-28.24L200.04-28.24Q198.72-23.60 194.32-21.20L194.32-21.20L201.44 0L196.88 0ZM186.96-24L186.96-24Q191.44-24 193.64-26.40L193.64-26.40L193.64-26.40Q195.84-28.80 196.36-31.84L196.36-31.84L196.36-31.84Q196.88-34.88 196.88-38.64L196.88-38.64L196.88-38.64Q196.88-45.20 194.16-48.48L194.16-48.48L194.16-48.48Q191.44-51.76 186.64-51.76L186.64-51.76L171.12-51.76L171.12-24L186.96-24ZM233.84 0L234.16-4.08L234.16-4.08Q232.24-1.68 229.32-0.40L229.32-0.40L229.32-0.40Q226.40 0.88 223.44 0.88L223.44 0.88L223.44 0.88Q208.40 0.88 208.40-13.76L208.40-13.76L208.40-40.08L212.88-40.08L212.88-13.20L212.88-13.20Q212.88-8.08 215.72-5.60L215.72-5.60L215.72-5.60Q218.56-3.12 223.44-3.12L223.44-3.12L223.44-3.12Q228.24-3.12 231-5.56L231-5.56L231-5.56Q233.76-8 233.76-13.20L233.76-13.20L233.76-40.08L238.24-40.08L238.24 0L233.84 0ZM277.04-12.56L277.04-12.56Q277.04-8.48 275.36-5.68L275.36-5.68L275.36-5.68Q273.68-2.88 270.80-1.44L270.80-1.44L270.80-1.44Q268.24-0.16 265.64 0.40L265.64 0.40L265.64 0.40Q263.04 0.96 260.08 0.96L260.08 0.96L260.08 0.96Q257.12 0.96 251.92 0.40L251.92 0.40L247.52 0L247.52-56L252-56L252-37.92L252-37.92Q253.92-39.28 256.68-40L256.68-40L256.68-40Q259.44-40.72 262.40-40.72L262.40-40.72L262.40-40.72Q266.96-40.72 270.24-39.20L270.24-39.20L270.24-39.20Q277.04-36.08 277.04-27.68L277.04-27.68L277.04-12.56ZM272.64-27.44L272.64-27.44Q272.64-32.32 269.80-34.52L269.80-34.52L269.80-34.52Q266.96-36.72 262.48-36.72L262.48-36.72L262.48-36.72Q259.76-36.72 256.96-35.96L256.96-35.96L256.96-35.96Q254.16-35.20 252-34L252-34L252-3.84L252-3.84Q256.72-3.12 259.76-3.12L259.76-3.12L259.76-3.12Q272.64-3.12 272.64-12.48L272.64-12.48L272.64-27.44Z" fill="url(#editing-shiny-gradient)"></path></g></g><g filter="url(#editing-shiny2)"><g transform="translate(108.36000633239746, 103.52000045776367)"><path d="M6.24 0L6.24-56L32.96-56L32.96-51.76L10.72-51.76L10.72-33.04L24.40-33.04L22.56-28.64L10.72-28.64L10.72 0L6.24 0ZM40.48 0L40.48-40.08L44.96-40.08L44.72-37.28L44.72-37.28Q48.48-40.80 54.56-40.80L54.56-40.80L54.56-40.80Q56.72-40.80 60.48-40.08L60.48-40.08L59.28-36L59.28-36Q56.72-36.80 53.92-36.80L53.92-36.80L53.92-36.80Q50.24-36.80 47.60-35.44L47.60-35.44L47.60-35.44Q44.96-34.08 44.96-31.36L44.96-31.36L44.96 0L40.48 0ZM98.32-14.72L98.32-14.72Q98.32-8 94.64-3.60L94.64-3.60L94.64-3.60Q90.96 0.80 83.52 0.80L83.52 0.80L83.52 0.80Q76.08 0.80 72.28-3.64L72.28-3.64L72.28-3.64Q68.48-8.08 68.48-14.72L68.48-14.72L68.48-25.28L68.48-25.28Q68.48-32.88 72.36-36.92L72.36-36.92L72.36-36.92Q76.24-40.96 83.52-40.96L83.52-40.96L83.52-40.96Q90.48-40.96 94.40-36.76L94.40-36.76L94.40-36.76Q98.32-32.56 98.32-25.28L98.32-25.28L98.32-14.72ZM93.84-25.28L93.84-25.28Q93.84-31.28 91.08-34.08L91.08-34.08L91.08-34.08Q88.32-36.88 83.52-36.88L83.52-36.88L83.52-36.88Q78.56-36.88 75.76-34.08L75.76-34.08L75.76-34.08Q72.96-31.28 72.96-25.28L72.96-25.28L72.96-13.92L72.96-13.92Q72.96-9.12 75.80-6.16L75.80-6.16L75.80-6.16Q78.64-3.20 83.52-3.20L83.52-3.20L83.52-3.20Q88.48-3.20 91.16-6.12L91.16-6.12L91.16-6.12Q93.84-9.04 93.84-13.92L93.84-13.92L93.84-25.28ZM131.20 0L131.20-27.44L131.20-27.44Q131.20-32.32 128.36-34.52L128.36-34.52L128.36-34.52Q125.52-36.72 121.04-36.72L121.04-36.72L121.04-36.72Q118.32-36.72 115.52-35.96L115.52-35.96L115.52-35.96Q112.72-35.20 110.56-34L110.56-34L110.56 0L106.08 0L106.08-40.08L110.56-40.08L110.24-37.36L110.24-37.36Q112.16-39.04 115.12-39.88L115.12-39.88L115.12-39.88Q118.08-40.72 121.28-40.72L121.28-40.72L121.28-40.72Q125.68-40.72 128.80-39.28L128.80-39.28L128.80-39.28Q132-37.84 133.80-34.96L133.80-34.96L133.80-34.96Q135.60-32.08 135.60-27.68L135.60-27.68L135.60 0L131.20 0ZM152.96 1.04L152.96 1.04Q148.48-0.24 146.48-3.04L146.48-3.04L146.48-3.04Q144.48-5.84 144.48-10.56L144.48-10.56L144.48-56L148.96-56L148.96-40.08L158.56-40.08L156.64-35.84L148.96-35.84L148.96-10.56L148.96-10.56Q148.96-4.16 154.24-2.40L154.24-2.40L152.96 1.04ZM196.88 0L190.08-19.84L190.08-19.84Q188.64-19.60 186.88-19.60L186.88-19.60L171.12-19.60L171.12 0L166.64 0L166.64-56L186.32-56L186.32-56Q193.92-56 197.64-51.36L197.64-51.36L197.64-51.36Q201.36-46.72 201.36-38.88L201.36-38.88L201.36-38.88Q201.36-32.88 200.04-28.24L200.04-28.24L200.04-28.24Q198.72-23.60 194.32-21.20L194.32-21.20L201.44 0L196.88 0ZM186.96-24L186.96-24Q191.44-24 193.64-26.40L193.64-26.40L193.64-26.40Q195.84-28.80 196.36-31.84L196.36-31.84L196.36-31.84Q196.88-34.88 196.88-38.64L196.88-38.64L196.88-38.64Q196.88-45.20 194.16-48.48L194.16-48.48L194.16-48.48Q191.44-51.76 186.64-51.76L186.64-51.76L171.12-51.76L171.12-24L186.96-24ZM233.84 0L234.16-4.08L234.16-4.08Q232.24-1.68 229.32-0.40L229.32-0.40L229.32-0.40Q226.40 0.88 223.44 0.88L223.44 0.88L223.44 0.88Q208.40 0.88 208.40-13.76L208.40-13.76L208.40-40.08L212.88-40.08L212.88-13.20L212.88-13.20Q212.88-8.08 215.72-5.60L215.72-5.60L215.72-5.60Q218.56-3.12 223.44-3.12L223.44-3.12L223.44-3.12Q228.24-3.12 231-5.56L231-5.56L231-5.56Q233.76-8 233.76-13.20L233.76-13.20L233.76-40.08L238.24-40.08L238.24 0L233.84 0ZM277.04-12.56L277.04-12.56Q277.04-8.48 275.36-5.68L275.36-5.68L275.36-5.68Q273.68-2.88 270.80-1.44L270.80-1.44L270.80-1.44Q268.24-0.16 265.64 0.40L265.64 0.40L265.64 0.40Q263.04 0.96 260.08 0.96L260.08 0.96L260.08 0.96Q257.12 0.96 251.92 0.40L251.92 0.40L247.52 0L247.52-56L252-56L252-37.92L252-37.92Q253.92-39.28 256.68-40L256.68-40L256.68-40Q259.44-40.72 262.40-40.72L262.40-40.72L262.40-40.72Q266.96-40.72 270.24-39.20L270.24-39.20L270.24-39.20Q277.04-36.08 277.04-27.68L277.04-27.68L277.04-12.56ZM272.64-27.44L272.64-27.44Q272.64-32.32 269.80-34.52L269.80-34.52L269.80-34.52Q266.96-36.72 262.48-36.72L262.48-36.72L262.48-36.72Q259.76-36.72 256.96-35.96L256.96-35.96L256.96-35.96Q254.16-35.20 252-34L252-34L252-3.84L252-3.84Q256.72-3.12 259.76-3.12L259.76-3.12L259.76-3.12Q272.64-3.12 272.64-12.48L272.64-12.48L272.64-27.44Z" fill="url(#editing-shiny-gradient2)"></path></g></g><style>text {
  font-size: 64px;
  font-family: Arial Black;
  dominant-baseline: central;
  text-anchor: middle;
}</style></svg>
