<svg width="302.78749999999997px" height="156.79999999999998px" xmlns="http://www.w3.org/2000/svg" viewBox="98.60625000000002 -3.3999999999999915 302.78749999999997 156.79999999999998" style="background: none;" preserveAspectRatio="xMidYMid"><defs><linearGradient id="editing-shiny-gradient" x1="0.04322727117869957" x2="0.9567727288213004" y1="0.2966316784620999" y2="0.7033683215379001" gradientUnits="objectBoundingBox"><stop offset="0.0" stop-color="#d62e2e"></stop><stop offset="0.5" stop-color="#fc5c5c"></stop><stop offset="1.0" stop-color="#eeeeee"></stop></linearGradient><linearGradient id="editing-shiny-gradient2" x1="0" x2="0" y1="0" y2="1"><stop offset="0.2" stop-color="#fff" stop-opacity="0.8"></stop><stop offset="0.8" stop-color="#fff" stop-opacity="0"></stop></linearGradient><filter id="editing-shiny2" x="-100%" y="-100%" width="300%" height="300%"><feMorphology operator="erode" radius="2"></feMorphology></filter><filter id="editing-shiny" x="-100%" y="-100%" width="300%" height="300%"><feFlood flood-color="#fff" result="flood"></feFlood><feConvolveMatrix in="SourceGraphic" result="conv" order="8,8" divisor="1" kernelMatrix="0 0 0 0 0 0 0 0 0 0 0 1 1 0 0 0 0 0 0 1 1 0 0 0 0 0 1 0 0 1 0 0 0 0 1 0 0 1 0 0 0 1 0 0 0 0 1 0 0 1 1 0 0 1 1 0 0 0 0 1 1 0 0 0 "></feConvolveMatrix><feOffset dx="0" dy="4" in="conv" result="offset"></feOffset><feComposite operator="in" in="flood" in2="offset" result="comp"></feComposite><feGaussianBlur in="offset" stdDeviation="3" result="shadow"></feGaussianBlur><feColorMatrix in="shadow" type="matrix" values="0.7 0 0 0 0  0 0.7 0 0 0  0 0 0.7 0 0  0 0 0 0.3 0" result="dark-shadow"></feColorMatrix><feOffset dx="0" dy="4" in="dark-shadow" result="offset-shadow"></feOffset><feOffset dx="0" dy="2" in="conv" result="offset-2"></feOffset><feComposite operator="out" in="offset" in2="offset-2" result="edge-diff"></feComposite><feGaussianBlur in="edge-diff" stdDeviation="1" result="edge-blur"></feGaussianBlur><feColorMatrix in="edge-blur" result="edge-shadow" type="matrix" values="0 0 0 0 0  0 0 0 0 0  0 0 0 0 0  0 0 0 0.5 0"></feColorMatrix><feComposite operator="in" in="edge-shadow" in2="offset" result="edge-shadow-in"></feComposite><feOffset dx="0" dy="1" in="edge-shadow-in" result="edge-shadow-final"></feOffset><feMerge result="out"><feMergeNode in="offset-shadow"></feMergeNode><feMergeNode in="comp"></feMergeNode><feMergeNode in="edge-shadow-final"></feMergeNode><feMergeNode in="SourceGraphic"></feMergeNode></feMerge></filter></defs><g filter="url(#editing-shiny)"><g transform="translate(145.1349902153015, 99.02999877929688)"><path d="M9.28 0L4.48 0L4.48-44.03L24.32-44.03L24.32-39.81L9.28-39.81L9.28-23.36L22.66-23.36L22.66-19.20L9.28-19.20L9.28 0ZM30.14 0L30.14-32.64L34.11-32.64L34.37-26.56L34.75-26.56L34.75-26.56Q35.58-30.34 37.66-31.74L37.66-31.74L37.66-31.74Q39.74-33.15 43.20-33.15L43.20-33.15L43.20-28.54L43.20-28.54Q39.87-28.54 38.02-27.14L38.02-27.14L38.02-27.14Q36.16-25.73 35.42-22.94L35.42-22.94L35.42-22.94Q34.69-20.16 34.69-15.49L34.69-15.49L34.69 0L30.14 0ZM58.43 0.51L58.43 0.51Q53.25 0.51 50.98-0.83L50.98-0.83L50.98-0.83Q48.70-2.18 48.03-5.50L48.03-5.50L48.03-5.50Q47.36-8.83 47.36-16.32L47.36-16.32L47.36-16.32Q47.36-23.81 48.03-27.14L48.03-27.14L48.03-27.14Q48.70-30.46 50.98-31.81L50.98-31.81L50.98-31.81Q53.25-33.15 58.43-33.15L58.43-33.15L58.43-33.15Q63.62-33.15 65.89-31.81L65.89-31.81L65.89-31.81Q68.16-30.46 68.80-27.14L68.80-27.14L68.80-27.14Q69.44-23.81 69.44-16.32L69.44-16.32L69.44-16.32Q69.44-8.83 68.80-5.50L68.80-5.50L68.80-5.50Q68.16-2.18 65.89-0.83L65.89-0.83L65.89-0.83Q63.62 0.51 58.43 0.51L58.43 0.51ZM58.43-3.39L58.43-3.39Q61.63-3.39 62.94-4.29L62.94-4.29L62.94-4.29Q64.26-5.18 64.58-7.62L64.58-7.62L64.58-7.62Q64.90-10.05 64.90-16.32L64.90-16.32L64.90-16.32Q64.90-22.59 64.58-25.02L64.58-25.02L64.58-25.02Q64.26-27.46 62.94-28.35L62.94-28.35L62.94-28.35Q61.63-29.25 58.43-29.25L58.43-29.25L58.43-29.25Q55.17-29.25 53.89-28.35L53.89-28.35L53.89-28.35Q52.61-27.46 52.26-24.99L52.26-24.99L52.26-24.99Q51.90-22.53 51.90-16.32L51.90-16.32L51.90-16.32Q51.90-10.11 52.26-7.65L52.26-7.65L52.26-7.65Q52.61-5.18 53.89-4.29L53.89-4.29L53.89-4.29Q55.17-3.39 58.43-3.39L58.43-3.39ZM93.06 0L93.06-19.07L93.06-19.07Q93.06-23.68 92.64-25.70L92.64-25.70L92.64-25.70Q92.22-27.71 91.07-28.38L91.07-28.38L91.07-28.38Q89.92-29.06 87.30-29.06L87.30-29.06L87.30-29.06Q84.35-29.06 83.01-27.65L83.01-27.65L83.01-27.65Q81.66-26.24 81.34-23.87L81.34-23.87L81.34-23.87Q81.02-21.50 81.02-16.96L81.02-16.96L81.02 0L76.48 0L76.48-32.64L80.45-32.64L80.70-28.10L81.09-28.10L81.09-28.10Q81.86-30.53 83.74-31.84L83.74-31.84L83.74-31.84Q85.63-33.15 89.15-33.15L89.15-33.15L89.15-33.15Q92.74-33.15 94.56-31.87L94.56-31.87L94.56-31.87Q96.38-30.59 96.99-28L96.99-28L96.99-28Q97.60-25.41 97.60-20.61L97.60-20.61L97.60 0L93.06 0ZM112.00 0L107.46 0L107.46-28.74L102.72-28.74L102.72-32.64L107.46-32.64L107.46-42.11L112.00-42.11L112.00-32.64L117.63-32.64L117.63-28.74L112.00-28.74L112.00 0ZM147.90 0L142.85 0L137.34-17.73L136.45-17.73L128.19-17.73L128.19 0L123.39 0L123.39-44.03L136.83-44.03L136.83-44.03Q141.38-44.03 143.62-42.37L143.62-42.37L143.62-42.37Q145.86-40.70 146.53-37.95L146.53-37.95L146.53-37.95Q147.20-35.20 147.20-30.85L147.20-30.85L147.20-30.85Q147.20-26.05 146.21-22.94L146.21-22.94L146.21-22.94Q145.22-19.84 141.95-18.56L141.95-18.56L147.90 0ZM135.62-21.89L135.62-21.89Q138.62-21.89 140.10-22.85L140.10-22.85L140.10-22.85Q141.57-23.81 141.98-25.63L141.98-25.63L141.98-25.63Q142.40-27.46 142.40-30.85L142.40-30.85L142.40-30.85Q142.40-34.30 141.98-36.10L141.98-36.10L141.98-36.10Q141.57-37.89 140.16-38.85L140.16-38.85L140.16-38.85Q138.75-39.81 135.68-39.81L135.68-39.81L128.19-39.81L128.19-21.89L135.62-21.89ZM171.39 0L171.14-4.54L170.82-4.54L170.82-4.54Q170.05-2.11 168.16-0.80L168.16-0.80L168.16-0.80Q166.27 0.51 162.75 0.51L162.75 0.51L162.75 0.51Q159.17 0.51 157.34-0.77L157.34-0.77L157.34-0.77Q155.52-2.05 154.91-4.64L154.91-4.64L154.91-4.64Q154.30-7.23 154.30-12.03L154.30-12.03L154.30-32.64L158.85-32.64L158.85-13.57L158.85-13.57Q158.85-8.90 159.26-6.91L159.26-6.91L159.26-6.91Q159.68-4.93 160.83-4.26L160.83-4.26L160.83-4.26Q161.98-3.58 164.61-3.58L164.61-3.58L164.61-3.58Q167.49-3.58 168.83-4.96L168.83-4.96L168.83-4.96Q170.18-6.34 170.53-8.74L170.53-8.74L170.53-8.74Q170.88-11.14 170.88-15.68L170.88-15.68L170.88-32.64L175.42-32.64L175.42 0L171.39 0ZM195.90 0.51L195.90 0.51Q193.02 0.51 191.01-0.51L191.01-0.51L191.01-0.51Q188.99-1.54 188.10-4.48L188.10-4.48L187.71-4.48L187.46 0L183.49 0L183.49-47.55L188.03-47.55L188.03-28.67L188.35-28.67L188.35-28.67Q189.25-31.10 191.10-32.13L191.10-32.13L191.10-32.13Q192.96-33.15 195.97-33.15L195.97-33.15L195.97-33.15Q199.74-33.15 201.73-31.71L201.73-31.71L201.73-31.71Q203.71-30.27 204.48-26.72L204.48-26.72L204.48-26.72Q205.25-23.17 205.25-16.32L205.25-16.32L205.25-16.32Q205.25-9.47 204.45-5.89L204.45-5.89L204.45-5.89Q203.65-2.30 201.66-0.90L201.66-0.90L201.66-0.90Q199.68 0.51 195.90 0.51L195.90 0.51ZM194.30-3.58L194.30-3.58Q197.31-3.58 198.56-4.42L198.56-4.42L198.56-4.42Q199.81-5.25 200.26-7.81L200.26-7.81L200.26-7.81Q200.70-10.37 200.70-16.32L200.70-16.32L200.70-16.32Q200.70-22.27 200.26-24.83L200.26-24.83L200.26-24.83Q199.81-27.39 198.56-28.22L198.56-28.22L198.56-28.22Q197.31-29.06 194.30-29.06L194.30-29.06L194.30-29.06Q192-29.06 190.66-28.16L190.66-28.16L190.66-28.16Q189.31-27.26 188.80-25.34L188.80-25.34L188.80-25.34Q188.35-23.74 188.19-21.63L188.19-21.63L188.19-21.63Q188.03-19.52 188.03-16.32L188.03-16.32L188.03-16.32Q188.03-13.06 188.16-11.07L188.16-11.07L188.16-11.07Q188.29-9.09 188.74-7.49L188.74-7.49L188.74-7.49Q189.25-5.38 190.59-4.48L190.59-4.48L190.59-4.48Q191.94-3.58 194.30-3.58L194.30-3.58Z" fill="url(#editing-shiny-gradient)"></path></g></g><g filter="url(#editing-shiny2)"><g transform="translate(145.1350359916687, 99.0300064086914)"><path d="M9.28 0L4.48 0L4.48-44.03L24.32-44.03L24.32-39.81L9.28-39.81L9.28-23.36L22.66-23.36L22.66-19.20L9.28-19.20L9.28 0ZM30.14 0L30.14-32.64L34.11-32.64L34.37-26.56L34.75-26.56L34.75-26.56Q35.58-30.34 37.66-31.74L37.66-31.74L37.66-31.74Q39.74-33.15 43.20-33.15L43.20-33.15L43.20-28.54L43.20-28.54Q39.87-28.54 38.02-27.14L38.02-27.14L38.02-27.14Q36.16-25.73 35.42-22.94L35.42-22.94L35.42-22.94Q34.69-20.16 34.69-15.49L34.69-15.49L34.69 0L30.14 0ZM58.43 0.51L58.43 0.51Q53.25 0.51 50.98-0.83L50.98-0.83L50.98-0.83Q48.70-2.18 48.03-5.50L48.03-5.50L48.03-5.50Q47.36-8.83 47.36-16.32L47.36-16.32L47.36-16.32Q47.36-23.81 48.03-27.14L48.03-27.14L48.03-27.14Q48.70-30.46 50.98-31.81L50.98-31.81L50.98-31.81Q53.25-33.15 58.43-33.15L58.43-33.15L58.43-33.15Q63.62-33.15 65.89-31.81L65.89-31.81L65.89-31.81Q68.16-30.46 68.80-27.14L68.80-27.14L68.80-27.14Q69.44-23.81 69.44-16.32L69.44-16.32L69.44-16.32Q69.44-8.83 68.80-5.50L68.80-5.50L68.80-5.50Q68.16-2.18 65.89-0.83L65.89-0.83L65.89-0.83Q63.62 0.51 58.43 0.51L58.43 0.51ZM58.43-3.39L58.43-3.39Q61.63-3.39 62.94-4.29L62.94-4.29L62.94-4.29Q64.26-5.18 64.58-7.62L64.58-7.62L64.58-7.62Q64.90-10.05 64.90-16.32L64.90-16.32L64.90-16.32Q64.90-22.59 64.58-25.02L64.58-25.02L64.58-25.02Q64.26-27.46 62.94-28.35L62.94-28.35L62.94-28.35Q61.63-29.25 58.43-29.25L58.43-29.25L58.43-29.25Q55.17-29.25 53.89-28.35L53.89-28.35L53.89-28.35Q52.61-27.46 52.26-24.99L52.26-24.99L52.26-24.99Q51.90-22.53 51.90-16.32L51.90-16.32L51.90-16.32Q51.90-10.11 52.26-7.65L52.26-7.65L52.26-7.65Q52.61-5.18 53.89-4.29L53.89-4.29L53.89-4.29Q55.17-3.39 58.43-3.39L58.43-3.39ZM93.06 0L93.06-19.07L93.06-19.07Q93.06-23.68 92.64-25.70L92.64-25.70L92.64-25.70Q92.22-27.71 91.07-28.38L91.07-28.38L91.07-28.38Q89.92-29.06 87.30-29.06L87.30-29.06L87.30-29.06Q84.35-29.06 83.01-27.65L83.01-27.65L83.01-27.65Q81.66-26.24 81.34-23.87L81.34-23.87L81.34-23.87Q81.02-21.50 81.02-16.96L81.02-16.96L81.02 0L76.48 0L76.48-32.64L80.45-32.64L80.70-28.10L81.09-28.10L81.09-28.10Q81.86-30.53 83.74-31.84L83.74-31.84L83.74-31.84Q85.63-33.15 89.15-33.15L89.15-33.15L89.15-33.15Q92.74-33.15 94.56-31.87L94.56-31.87L94.56-31.87Q96.38-30.59 96.99-28L96.99-28L96.99-28Q97.60-25.41 97.60-20.61L97.60-20.61L97.60 0L93.06 0ZM112.00 0L107.46 0L107.46-28.74L102.72-28.74L102.72-32.64L107.46-32.64L107.46-42.11L112.00-42.11L112.00-32.64L117.63-32.64L117.63-28.74L112.00-28.74L112.00 0ZM147.90 0L142.85 0L137.34-17.73L136.45-17.73L128.19-17.73L128.19 0L123.39 0L123.39-44.03L136.83-44.03L136.83-44.03Q141.38-44.03 143.62-42.37L143.62-42.37L143.62-42.37Q145.86-40.70 146.53-37.95L146.53-37.95L146.53-37.95Q147.20-35.20 147.20-30.85L147.20-30.85L147.20-30.85Q147.20-26.05 146.21-22.94L146.21-22.94L146.21-22.94Q145.22-19.84 141.95-18.56L141.95-18.56L147.90 0ZM135.62-21.89L135.62-21.89Q138.62-21.89 140.10-22.85L140.10-22.85L140.10-22.85Q141.57-23.81 141.98-25.63L141.98-25.63L141.98-25.63Q142.40-27.46 142.40-30.85L142.40-30.85L142.40-30.85Q142.40-34.30 141.98-36.10L141.98-36.10L141.98-36.10Q141.57-37.89 140.16-38.85L140.16-38.85L140.16-38.85Q138.75-39.81 135.68-39.81L135.68-39.81L128.19-39.81L128.19-21.89L135.62-21.89ZM171.39 0L171.14-4.54L170.82-4.54L170.82-4.54Q170.05-2.11 168.16-0.80L168.16-0.80L168.16-0.80Q166.27 0.51 162.75 0.51L162.75 0.51L162.75 0.51Q159.17 0.51 157.34-0.77L157.34-0.77L157.34-0.77Q155.52-2.05 154.91-4.64L154.91-4.64L154.91-4.64Q154.30-7.23 154.30-12.03L154.30-12.03L154.30-32.64L158.85-32.64L158.85-13.57L158.85-13.57Q158.85-8.90 159.26-6.91L159.26-6.91L159.26-6.91Q159.68-4.93 160.83-4.26L160.83-4.26L160.83-4.26Q161.98-3.58 164.61-3.58L164.61-3.58L164.61-3.58Q167.49-3.58 168.83-4.96L168.83-4.96L168.83-4.96Q170.18-6.34 170.53-8.74L170.53-8.74L170.53-8.74Q170.88-11.14 170.88-15.68L170.88-15.68L170.88-32.64L175.42-32.64L175.42 0L171.39 0ZM195.90 0.51L195.90 0.51Q193.02 0.51 191.01-0.51L191.01-0.51L191.01-0.51Q188.99-1.54 188.10-4.48L188.10-4.48L187.71-4.48L187.46 0L183.49 0L183.49-47.55L188.03-47.55L188.03-28.67L188.35-28.67L188.35-28.67Q189.25-31.10 191.10-32.13L191.10-32.13L191.10-32.13Q192.96-33.15 195.97-33.15L195.97-33.15L195.97-33.15Q199.74-33.15 201.73-31.71L201.73-31.71L201.73-31.71Q203.71-30.27 204.48-26.72L204.48-26.72L204.48-26.72Q205.25-23.17 205.25-16.32L205.25-16.32L205.25-16.32Q205.25-9.47 204.45-5.89L204.45-5.89L204.45-5.89Q203.65-2.30 201.66-0.90L201.66-0.90L201.66-0.90Q199.68 0.51 195.90 0.51L195.90 0.51ZM194.30-3.58L194.30-3.58Q197.31-3.58 198.56-4.42L198.56-4.42L198.56-4.42Q199.81-5.25 200.26-7.81L200.26-7.81L200.26-7.81Q200.70-10.37 200.70-16.32L200.70-16.32L200.70-16.32Q200.70-22.27 200.26-24.83L200.26-24.83L200.26-24.83Q199.81-27.39 198.56-28.22L198.56-28.22L198.56-28.22Q197.31-29.06 194.30-29.06L194.30-29.06L194.30-29.06Q192-29.06 190.66-28.16L190.66-28.16L190.66-28.16Q189.31-27.26 188.80-25.34L188.80-25.34L188.80-25.34Q188.35-23.74 188.19-21.63L188.19-21.63L188.19-21.63Q188.03-19.52 188.03-16.32L188.03-16.32L188.03-16.32Q188.03-13.06 188.16-11.07L188.16-11.07L188.16-11.07Q188.29-9.09 188.74-7.49L188.74-7.49L188.74-7.49Q189.25-5.38 190.59-4.48L190.59-4.48L190.59-4.48Q191.94-3.58 194.30-3.58L194.30-3.58Z" fill="url(#editing-shiny-gradient2)"></path></g></g><style>text {
  font-size: 64px;
  font-family: Arial Black;
  dominant-baseline: central;
  text-anchor: middle;
}</style></svg>